<svg xmlns="http://www.w3.org/2000/svg" xmlns:xlink="http://www.w3.org/1999/xlink" viewBox="0 0 20.04 20.16"><defs><style>.cls-1{fill:none;}.cls-2{fill:#1d1d1b;}.cls-3{isolation:isolate;}.cls-4{fill:#a770ff;}.cls-5{mix-blend-mode:soft-light;fill:url(#_10_ppp_10_);}</style><pattern id="_10_ppp_10_" data-name="10 ppp 10%" width="28.8" height="28.8" patternTransform="translate(334.21 -41.56) scale(1.4 1.4)" patternUnits="userSpaceOnUse" viewBox="0 0 28.8 28.8"><rect class="cls-1" width="28.8" height="28.8"/><path class="cls-2" d="M28.8,29.52a.72.72,0,1,0-.72-.72A.72.72,0,0,0,28.8,29.52Z"/><path class="cls-2" d="M14.4,29.52a.72.72,0,1,0-.72-.72A.72.72,0,0,0,14.4,29.52Z"/><path class="cls-2" d="M0,29.52a.72.72,0,0,0,0-1.44.72.72,0,0,0-.72.72A.72.72,0,0,0,0,29.52Z"/><path class="cls-2" d="M28.8,15.12a.72.72,0,1,0-.72-.72A.72.72,0,0,0,28.8,15.12Z"/><path class="cls-2" d="M14.4,15.12a.72.72,0,1,0-.72-.72A.72.72,0,0,0,14.4,15.12Z"/><path class="cls-2" d="M0,15.12a.72.72,0,0,0,0-1.44.72.72,0,0,0-.72.72A.72.72,0,0,0,0,15.12Z"/><circle class="cls-2" cx="28.8" r="0.72"/><circle class="cls-2" cx="14.4" r="0.72"/><path class="cls-2" d="M0,.72A.72.72,0,0,0,.72,0,.72.72,0,0,0,0-.72.72.72,0,0,0-.72,0,.72.72,0,0,0,0,.72Z"/><circle class="cls-2" cx="-14.4" r="0.72"/><path class="cls-2" d="M-14.4,0"/><path class="cls-2" d="M7.2,22.32a.72.72,0,1,0-.72-.72A.72.72,0,0,0,7.2,22.32Z"/><path class="cls-2" d="M21.6,22.32a.72.72,0,1,0-.72-.72A.72.72,0,0,0,21.6,22.32Z"/><path class="cls-2" d="M7.2,7.92a.72.72,0,1,0-.72-.72A.72.72,0,0,0,7.2,7.92Z"/><path class="cls-2" d="M21.6,7.92a.72.72,0,1,0-.72-.72A.72.72,0,0,0,21.6,7.92Z"/><path class="cls-2" d="M-7.2,7.92a.72.72,0,0,0,.72-.72.72.72,0,0,0-.72-.72.72.72,0,0,0-.72.72A.72.72,0,0,0-7.2,7.92Z"/><path class="cls-2" d="M-7.2,7.2"/></pattern></defs><title>Ресурс 1</title><g class="cls-3"><g id="Слой_2" data-name="Слой 2"><g id="Layer_1" data-name="Layer 1"><rect class="cls-4" width="20.04" height="20.16"/><rect class="cls-5" width="20.04" height="20.16"/></g></g></g></svg>