<svg xmlns="http://www.w3.org/2000/svg" viewBox="0 0 15.62 23.05"><defs><style>.cls-1{fill:#00d7ff;}.cls-2{fill:#ff63be;}</style></defs><title>bg-left</title><g id="Слой_2" data-name="Слой 2"><g id="Isolation_Mode" data-name="Isolation Mode"><path class="cls-1" d="M4.53,16.56a5.73,5.73,0,0,1,.78-3.26A11.59,11.59,0,0,1,8.1,10.78,4.92,4.92,0,0,0,9.75,9.16a4.14,4.14,0,0,0,.6-2.23,3.05,3.05,0,0,0-.7-2.09,2.56,2.56,0,0,0-2-.78A2.49,2.49,0,0,0,5.9,4.7a2.51,2.51,0,0,0-.73,1.9H0l0-.09A5.67,5.67,0,0,1,2.07,1.63,8.88,8.88,0,0,1,7.65,0a8.52,8.52,0,0,1,5.84,1.87,6.4,6.4,0,0,1,2.13,5.06,6,6,0,0,1-1.16,3.59,8.16,8.16,0,0,1-3,2.57,3.67,3.67,0,0,0-1.35,1.42,5,5,0,0,0-.35,2Zm5.26,6.49H4.54V18.84H9.79Z"/><path class="cls-2" d="M4.53,16.56a5.73,5.73,0,0,1,.78-3.26A11.59,11.59,0,0,1,8.1,10.78,4.92,4.92,0,0,0,9.75,9.16a4.14,4.14,0,0,0,.6-2.23,3.05,3.05,0,0,0-.7-2.09,2.56,2.56,0,0,0-2-.78A2.49,2.49,0,0,0,5.9,4.7a2.51,2.51,0,0,0-.73,1.9H0l0-.09A5.67,5.67,0,0,1,2.07,1.63,8.88,8.88,0,0,1,7.65,0a8.52,8.52,0,0,1,5.84,1.87,6.4,6.4,0,0,1,2.13,5.06,6,6,0,0,1-1.16,3.59,8.16,8.16,0,0,1-3,2.57,3.67,3.67,0,0,0-1.35,1.42,5,5,0,0,0-.35,2Zm5.26,6.49H4.54V18.84H9.79Z"/></g></g></svg>