<svg xmlns="http://www.w3.org/2000/svg" viewBox="0 0 56.95 96.36"><defs><style>.cls-1{fill:#ff63be;}.cls-2{fill:#fff;}.cls-3{fill:#ffcc38;}.cls-4{fill:#00d7ff;}.cls-5{fill:#ffd01f;}</style></defs><title>girl-five</title><g id="Слой_2" data-name="Слой 2"><g id="Isolation_Mode" data-name="Isolation Mode"><path d="M32,94.81,30.7,96.2l-12,.16h0a3,3,0,0,1,3.26-2.31l1.47.18a6.32,6.32,0,0,0,4.44-2.15Z"/><path d="M57,93.81,55.7,95.2l-12,.16h0a3,3,0,0,1,3.26-2.31l1.47.18a6.32,6.32,0,0,0,4.44-2.15Z"/><path d="M13.33,16h.15a4.4,4.4,0,0,1,4.4,4.4v9.46a0,0,0,0,1,0,0h-9a0,0,0,0,1,0,0V20.41A4.4,4.4,0,0,1,13.33,16Z" transform="translate(26.8 45.88) rotate(-180)"/><path class="cls-1" d="M3.89,13c-1.39-2.26-1-6.15,1.52-8.68a7.75,7.75,0,0,1,9.12-1.45l.5.26a7.74,7.74,0,0,1,3.94,5l1.45,7,3.1,1-.89,8.69-2.94-2.61-4.66-4-3,1.5a3.84,3.84,0,0,1-5.21-1.37l0,0L6,16.8Z"/><path d="M2.83,10.67l-.32,0A8.64,8.64,0,0,1,8.44.36h0a8.63,8.63,0,0,1,11,6.8,37.09,37.09,0,0,1,.65,6.24l-5.82-5-.49.28A17.08,17.08,0,0,1,2.83,10.67Z"/><path class="cls-2" d="M9.52,16.45a1.69,1.69,0,1,0,2.91-1.72"/><path class="cls-3" d="M12.67,36.38l1-10.68a4.42,4.42,0,0,1,1.13-2.26l2.83-3,2.08,1.79,3.83-6.08L31,13.4S43.41,30.57,45,40.7l.41,2.62L28.24,46.45l-5.93-9.88-3.06-2.72-1.18,7.41a4.22,4.22,0,0,1-4.27,3.55h0a4.22,4.22,0,0,1-3.68-2.39l-7.2-15L7,25.6Z"/><path class="cls-4" d="M51.46,93.54,40,57.27s-10.14-6.37-11.49-10l-.3-.8,17.17-3.13,2.31,4.08a16.25,16.25,0,0,1,2.92,8.78L51,67.83l1.74,4.41A64.22,64.22,0,0,1,56,87.81l.37,5.73Z"/><path class="cls-4" d="M31.67,91.47l-.25,2.07H26.06L23.73,72.12a8.17,8.17,0,0,1,.43-4l4.08-21.69,7.52-1.37L40,57.27,31,71.34S32.59,84.46,31.67,91.47Z"/><path class="cls-1" d="M13.81,10.9a1.94,1.94,0,1,0,.68-2.66A2,2,0,0,0,13.81,10.9Z"/><polygon class="cls-5" points="33.86 24.51 36.74 40.32 25.23 54.79 21.63 52.42 28 37.95 28.1 20.7 33.86 24.51"/><path class="cls-1" d="M2.92,27.47h0a5.56,5.56,0,0,1-2-1.8L.18,24.59a2,2,0,0,1,.47-2.3L2.59,20.5,1.12,17.66a.78.78,0,0,1,.44-1.09h0a.77.77,0,0,1,.86.26L4.86,20l.23.25a6.86,6.86,0,0,1,1.15,1.68h0a7,7,0,0,1,.67,2.45L7,25.6Z"/><path class="cls-1" d="M17,58.74h0a.82.82,0,0,1-.3-1.11l1.76-3.11,2-.22-2.35,4.13A.82.82,0,0,1,17,58.74Z"/><path class="cls-1" d="M18,60.22h0a.82.82,0,0,1-.31-1.1l2.68-4.82,1.42.8-2.67,4.81A.83.83,0,0,1,18,60.22Z"/><path class="cls-1" d="M19.78,60.34h0a.81.81,0,0,1-.3-1.11l2.35-4.13,1.41.8L20.89,60A.81.81,0,0,1,19.78,60.34Z"/><path class="cls-1" d="M22.31,59.19h0a.81.81,0,0,1-.3-1.11l1.23-2.18,1.42.81-1.24,2.18A.81.81,0,0,1,22.31,59.19Z"/><path class="cls-1" d="M24.19,57.54l.79-1.4.16-1.54-3.71-2.22-.09,0a4.85,4.85,0,0,0-3.12,2.46l-.11,0Z"/></g></g></svg>