<svg xmlns="http://www.w3.org/2000/svg" viewBox="0 0 64.46 91.06"><defs><style>.cls-1{fill:#ffd01f;}.cls-2{fill:#00d7ff;}.cls-3{fill:#ff63be;}.cls-4{fill:#fff;}</style></defs><title>girl-four</title><g id="Слой_2" data-name="Слой 2"><g id="Isolation_Mode" data-name="Isolation Mode"><path class="cls-1" d="M21.91,62.35V78.43a1.94,1.94,0,0,0,1.55,1.93,1.86,1.86,0,0,0,2.17-1.83V73.89A1.88,1.88,0,0,1,27.51,72c.87,0,1.83.61,1.83,1.42V89.1A1.91,1.91,0,0,0,30.88,91a1.85,1.85,0,0,0,2.17-1.83l0-12.11a1.87,1.87,0,0,1,2-1.89h0a1.87,1.87,0,0,1,1.78,1.87v3.68a1.92,1.92,0,0,0,1.55,1.93,1.86,1.86,0,0,0,2.17-1.83V59.16Z"/><path class="cls-2" d="M22.4,15.89H41.14L46.2,5.12A3.59,3.59,0,0,0,42.59,0h0a3.62,3.62,0,0,0-1.66.6L31.77,6.87,22.61.62A3.66,3.66,0,0,0,21,0h0a3.59,3.59,0,0,0-3.61,5.1Z"/><path class="cls-3" d="M1.37,66.38,6.2,61.1,5,60,.21,65.31a.79.79,0,1,0,1.16,1.07Z"/><path class="cls-3" d="M7.88,61.73l-.24.66a13.59,13.59,0,0,0-3.56,8.5l0,.24A1.26,1.26,0,0,1,2.51,72.3h0a1.28,1.28,0,0,1-1-1.1h0a13.72,13.72,0,0,1,2.53-9.49l2.21-3Z"/><path class="cls-3" d="M63.09,66.38,58.27,61.1,59.43,60l4.83,5.28a.79.79,0,0,1-1.17,1.07Z"/><path class="cls-3" d="M56.58,61.73l.25.66a13.63,13.63,0,0,1,3.55,8.5l0,.24A1.26,1.26,0,0,0,62,72.3h0a1.28,1.28,0,0,0,1-1.1h0a13.67,13.67,0,0,0-2.53-9.49l-2.21-3Z"/><path d="M59.2,60,43.12,38.29l-2-22.4-1.29-.38a28.54,28.54,0,0,0-15.92-.06l-1.53.44-1.21,22.6L5.27,60l2.49,2.4L19.91,49.6a17,17,0,0,1,12.3-5.29h0a17,17,0,0,1,12.33,5.25L56.7,62.24Z"/><path class="cls-3" d="M21.38,59.29c-.05,2.89,2.52,6.28,6.23,7.27a8.41,8.41,0,0,0,9.32-3.69l.32-.52a8.4,8.4,0,0,0,.9-6.86L35.7,49.42l0-4.31-3.45-2.62-3.52,2.62-.08,4.64H25.38a4.17,4.17,0,0,0-4.11,4.17v1.94Z"/><path class="cls-4" d="M24.79,54.22a1.84,1.84,0,1,1,3.67,0"/><path class="cls-1" d="M33.37,58.49,21,61.12A6.5,6.5,0,0,0,21.47,63a9.44,9.44,0,0,0,11.47,6,10,10,0,0,0,7.54-9.34c0-4.14-3.8-7.76-3.8-7.76Z"/><path class="cls-3" d="M31.88,57a2.1,2.1,0,1,1,2.1,2.1A2.1,2.1,0,0,1,31.88,57Z"/></g></g></svg>