<svg xmlns="http://www.w3.org/2000/svg" viewBox="0 0 52.72 69.89"><defs><style>.cls-1{fill:#ff63be;}.cls-2{fill:#fff;}.cls-3{fill:#00d7ff;}.cls-4{fill:#ffd01f;}</style></defs><title>girl-one</title><g id="Слой_2" data-name="Слой 2"><g id="Isolation_Mode" data-name="Isolation Mode"><path d="M41.81,31.64c-1.41-4.62-3.45-6.57-7.23-6.81-1.68-.1-15.71-.1-17.38,0-3.79.24-5.54,2.61-7,7.3L7,45.06a5,5,0,0,0,1.21,4l4.32,4.81,2-17,3.71,20.3H34.91l2.76-20.3,2.72,16.9L44.6,49a4.94,4.94,0,0,0,1.18-4Z"/><path class="cls-1" d="M14.77,10.23c0-3,2.58-6.43,6.38-7.45A8.61,8.61,0,0,1,30.7,6.56l.33.53a8.6,8.6,0,0,1,.92,7l-2.51,6.22,0,4.42-3.53,2.68-3.61-2.68L22.2,20H18.87a4.27,4.27,0,0,1-4.21-4.27v-2Z"/><path class="cls-2" d="M18.27,15.42a1.88,1.88,0,0,0,3.76,0"/><path class="cls-3" d="M31.86,29h0s4-5.13,1.42-16v0A9.78,9.78,0,0,0,27.36.54L26.61.32a9.67,9.67,0,0,0-11.75,6.1,6.67,6.67,0,0,0-.44,1.93l6.19,4.5a3.35,3.35,0,0,0,4.54-.55l1.26-1.49L30,27.64A2.12,2.12,0,0,0,31.86,29Z"/><path class="cls-1" d="M25.53,12.54a2.15,2.15,0,1,0,2.15-2.15A2.15,2.15,0,0,0,25.53,12.54Z"/><path class="cls-1" d="M52,57.12a4.88,4.88,0,0,0-5.44-2l-9.39,2.51H15.58L6.19,55.14a4.93,4.93,0,0,0-5.43,2.1,5.13,5.13,0,0,0,2.29,7.38l16.76,5.27H37.55l12.12-5.33A5.21,5.21,0,0,0,52,57.12Z"/><path d="M31.86,68.26l1.25,1.39,12,.16h0a3,3,0,0,0-3.26-2.31l-1.47.18A6.32,6.32,0,0,1,36,65.53Z"/><path d="M13.4,67.56a5.41,5.41,0,0,1-1.08.12l-1.47-.18a3,3,0,0,0-3.26,2.31l12.22-.14Z"/><path class="cls-2" d="M37.74,63.13H15a2.22,2.22,0,0,1-2.2-2L11.27,46.93a2.22,2.22,0,0,1,2.2-2.44H39.25a2.22,2.22,0,0,1,2.2,2.45L39.94,61.15A2.21,2.21,0,0,1,37.74,63.13Z"/><path class="cls-4" d="M28.3,53.81a1.94,1.94,0,1,1-1.94-1.94A1.94,1.94,0,0,1,28.3,53.81Z"/><rect x="29.32" y="24.81" width="4.81" height="6.19"/></g></g></svg>