<svg xmlns="http://www.w3.org/2000/svg" viewBox="0 0 75.32 122.55"><defs><style>.cls-1{fill:#ffcc38;}.cls-2{fill:#ff63be;}.cls-3{fill:#00d7ff;}.cls-4{fill:#fff;}</style></defs><title>girl-three</title><g id="Слой_2" data-name="Слой 2"><g id="Isolation_Mode" data-name="Isolation Mode"><path d="M53.35,119l.86,3.51-10-.37h0a2.61,2.61,0,0,1,3-1.83l1.27.24a1.25,1.25,0,0,0,1.23-1.69h0Z"/><path d="M66.17,74.22l-.85,3.51,10-.39h0a2.59,2.59,0,0,0-3-1.82l-1.27.24a1.25,1.25,0,0,1-1.23-1.69h0Z"/><path class="cls-1" d="M55.69,48.48,42.24,56.15l-6.68,3.63-.62.64-.88.06-6.65,7.07,7.75,22.54a6.52,6.52,0,0,0,.35.82l14.19,28,3.65.14s.3-4.57-2.89-13.74a104.77,104.77,0,0,0-7.6-16.68l-3-17.81L52.65,59.47s0-2.82,5,5.48,7.75,11,7.75,11L68.66,74,56.1,49.26A7.22,7.22,0,0,0,55.69,48.48Z"/><path class="cls-2" d="M56.47,6.1,51.19,11l1.08,1.17,5.28-4.91A.8.8,0,0,0,56.47,6.1Z"/><path class="cls-2" d="M49.55,10.23l.3-.63a13.82,13.82,0,0,0,4.28-8.25l0-.24a1.28,1.28,0,0,1,1.66-1h0a1.29,1.29,0,0,1,.89,1.19h0a13.78,13.78,0,0,1-3.33,9.32l-2.47,2.87Z"/><path class="cls-2" d="M6.21,76.29,9.63,70l1.41.76L7.61,77.05a.79.79,0,0,1-1.08.32A.8.8,0,0,1,6.21,76.29Z"/><path class="cls-2" d="M8.47,68.56,7.93,69A13.81,13.81,0,0,1,1,75.22l-.22.09a1.28,1.28,0,0,0-.6,1.87h0a1.27,1.27,0,0,0,1.37.56h0a13.78,13.78,0,0,0,8.19-5.55l2.16-3.12Z"/><path class="cls-3" d="M49.72,9.62,25.56,32.39,12.45,42.27,7.92,68.88l3.21,1.6,5.39-22.37L27,67.76l18.89-12.9L34.75,33.57,52,12.23Z"/><path class="cls-2" d="M25.75,15.41c-1.23-2.73-5.11-4.76-9-4.05a8.67,8.67,0,0,0-7.08,7.55l-.07.62a8.66,8.66,0,0,0,2.18,6.81L17.23,32l1.43,3.34,5.11,1.53,1.79-4.51-1.84-3.92,3-1.31a4.3,4.3,0,0,0,2-5.7v0l-1.35-2.86Z"/><path d="M26.19,53.38h0a2.82,2.82,0,0,0,1.34-3.77l-13-27.18L25,13.61a6.18,6.18,0,0,0-1.15-1.47,9.17,9.17,0,0,0-12.54-.48h0A9.52,9.52,0,0,0,8.79,23.11L22.42,52A2.82,2.82,0,0,0,26.19,53.38Z"/><path class="cls-4" d="M25.31,22.74a1.9,1.9,0,1,1-3.43,1.62"/><path class="cls-2" d="M17.69,23a2.24,2.24,0,1,1-3-1.07A2.24,2.24,0,0,1,17.69,23Z"/></g></g></svg>