<svg xmlns="http://www.w3.org/2000/svg" viewBox="0 0 64.46 91.06"><defs><style>.cls-1{fill:#ffd01f;}.cls-2{fill:#00d7ff;}.cls-3{fill:#fff;}</style></defs><title>girl-two</title><g id="Слой_2" data-name="Слой 2"><g id="Isolation_Mode" data-name="Isolation Mode"><path d="M22.4,15.89H41.14L46.2,5.12A3.59,3.59,0,0,0,42.59,0h0a3.62,3.62,0,0,0-1.66.6L31.77,6.87,22.61.62A3.66,3.66,0,0,0,21,0h0a3.59,3.59,0,0,0-3.61,5.1Z"/><path class="cls-1" d="M1.37,66.38,6.2,61.1,5,60,.21,65.31a.79.79,0,1,0,1.16,1.07Z"/><path class="cls-1" d="M7.88,61.73l-.24.66a13.59,13.59,0,0,0-3.56,8.5l0,.24A1.26,1.26,0,0,1,2.51,72.3h0a1.28,1.28,0,0,1-1-1.1h0a13.72,13.72,0,0,1,2.53-9.49l2.21-3Z"/><path class="cls-1" d="M63.09,66.38,58.27,61.1,59.43,60l4.83,5.28a.79.79,0,0,1-1.17,1.07Z"/><path class="cls-1" d="M56.58,61.73l.25.66a13.63,13.63,0,0,1,3.55,8.5l0,.24A1.26,1.26,0,0,0,62,72.3h0a1.28,1.28,0,0,0,1-1.1h0a13.67,13.67,0,0,0-2.53-9.49l-2.21-3Z"/><path class="cls-2" d="M59.2,60,43.12,38.29l-2-22.4-1.29-.38a28.54,28.54,0,0,0-15.92-.06l-1.53.44-1.21,22.6L5.27,60l2.49,2.4L19.91,49.6a17,17,0,0,1,12.3-5.29h0a17,17,0,0,1,12.33,5.25L56.7,62.24Z"/><path d="M42.6,62.35V78.43a1.93,1.93,0,0,1-1.54,1.93,1.85,1.85,0,0,1-2.17-1.83V73.89A1.88,1.88,0,0,0,37,72c-.87,0-1.82.61-1.82,1.42V89.1A1.92,1.92,0,0,1,33.63,91a1.86,1.86,0,0,1-2.17-1.83l0-12.11a1.88,1.88,0,0,0-2-1.89h0a1.88,1.88,0,0,0-1.79,1.87v3.68a1.92,1.92,0,0,1-1.54,1.93A1.85,1.85,0,0,1,24,80.85V59.16Z"/><path class="cls-1" d="M43.13,59.29c0,2.89-2.51,6.28-6.23,7.27a8.4,8.4,0,0,1-9.31-3.69l-.32-.52a8.37,8.37,0,0,1-.91-6.86l2.45-6.07,0-4.31,3.44-2.62,3.53,2.62.08,4.64h3.25a4.17,4.17,0,0,1,4.1,4.17v1.94Z"/><path class="cls-3" d="M39.72,54.22a1.84,1.84,0,1,0-3.67,0"/><path d="M31.14,58.49l12.34,2.63A6.5,6.5,0,0,1,43.05,63a9.46,9.46,0,0,1-11.48,6A10,10,0,0,1,24,59.62c0-4.14,3.79-7.76,3.79-7.76Z"/><path class="cls-1" d="M32.63,57a2.1,2.1,0,1,0-2.1,2.1A2.1,2.1,0,0,0,32.63,57Z"/></g></g></svg>