<svg xmlns="http://www.w3.org/2000/svg" viewBox="0 0 508.86 385.98"><defs><style>.cls-1{isolation:isolate;}.cls-2{fill:#f2f2f2;}.cls-3{fill:#ff63be;}.cls-4{fill:#fff;}.cls-5{fill:#ffcc38;}.cls-6{fill:#00d7ff;}.cls-7{fill:#ffd01f;}.cls-8{opacity:0.15;mix-blend-mode:soft-light;}.cls-9{fill:#606060;}.cls-10{fill:#ffb700;}.cls-11{fill:#00aef2;}</style></defs><title>main-logo</title><g class="cls-1"><g id="Слой_2" data-name="Слой 2"><g id="Layer_1" data-name="Layer 1"><path class="cls-2" d="M28.62,95.22H65.1a52.63,52.63,0,0,1,12.33,1.36,25.21,25.21,0,0,1,9.76,4.54,20.88,20.88,0,0,1,6.36,8.48,33.12,33.12,0,0,1,2.27,13,27,27,0,0,1-4.08,15,20.6,20.6,0,0,1-12.26,8.56v.3a21.41,21.41,0,0,1,14.37,7.72q5.3,6.51,5.3,17.4a43.31,43.31,0,0,1-1.66,12.11,24.8,24.8,0,0,1-5.68,10.07,28.4,28.4,0,0,1-10.44,6.88q-6.44,2.58-16,2.58H28.62Zm28,44.35q9.09,0,13.24-3.26t4.17-11q0-7.73-3.79-10.9t-11.95-3.18H50.42v28.31Zm2.27,47.67c5.25,0,9.48-1.16,12.72-3.48s4.84-6.61,4.84-12.86a20.44,20.44,0,0,0-1.29-7.8,13.07,13.07,0,0,0-3.48-5,12.44,12.44,0,0,0-5.22-2.65,27.2,27.2,0,0,0-6.66-.76H50.42v32.54Z"/><path d="M112.76,217.44l-1.25,1.39-12,.16h0a3,3,0,0,1,3.25-2.31l1.47.18a6.3,6.3,0,0,0,4.44-2.15Z"/><path d="M137.76,216.44l-1.25,1.39-12,.16h0a3,3,0,0,1,3.25-2.31l1.47.18a6.3,6.3,0,0,0,4.44-2.15Z"/><path d="M94.14,138.64h.15a4.4,4.4,0,0,1,4.4,4.4v9.46a0,0,0,0,1,0,0h-9a0,0,0,0,1,0,0V143A4.4,4.4,0,0,1,94.14,138.64Z" transform="translate(188.43 291.14) rotate(-180)"/><path class="cls-3" d="M84.71,135.61c-1.4-2.26-1-6.15,1.52-8.68a7.75,7.75,0,0,1,9.12-1.45l.5.26a7.73,7.73,0,0,1,3.93,5l1.45,7,3.1,1-.88,8.69-2.94-2.61-4.67-4-3,1.5A3.83,3.83,0,0,1,87.68,141l0,0-.89-1.51Z"/><path d="M83.64,133.3l-.31,0A8.63,8.63,0,0,1,89.25,123h0a8.64,8.64,0,0,1,11,6.8,37.17,37.17,0,0,1,.64,6.24l-5.81-5-.49.28A17.11,17.11,0,0,1,83.64,133.3Z"/><path class="cls-4" d="M90.34,139.08a1.69,1.69,0,1,0,2.91-1.72"/><path class="cls-5" d="M93.48,159l1-10.68a4.43,4.43,0,0,1,1.14-2.26l2.82-3,2.09,1.79,3.82-6.08,7.45-2.75s12.45,17.17,14,27.3l.41,2.62-17.18,3.13-5.93-9.88-3.05-2.72-1.19,7.41a4.21,4.21,0,0,1-4.27,3.55h0a4.22,4.22,0,0,1-3.67-2.39l-7.21-15,4.1-1.87Z"/><path class="cls-6" d="M132.27,216.17,120.84,179.9s-10.13-6.37-11.49-10l-.3-.8L126.23,166l2.3,4.08a16.26,16.26,0,0,1,2.93,8.78l.38,11.65,1.73,4.41a64.71,64.71,0,0,1,3.25,15.57l.37,5.73Z"/><path class="cls-6" d="M112.49,214.1l-.25,2.07h-5.37l-2.33-21.42a8.3,8.3,0,0,1,.44-4l4.07-21.69,7.53-1.37,4.26,12.19-9,14.07S113.4,207.09,112.49,214.1Z"/><path class="cls-3" d="M94.63,133.53a1.94,1.94,0,1,0,.68-2.66A1.94,1.94,0,0,0,94.63,133.53Z"/><polygon class="cls-7" points="114.67 147.14 117.55 162.95 106.05 177.42 102.45 175.05 108.82 160.58 108.92 143.33 114.67 147.14"/><path class="cls-3" d="M83.73,150.1h0a5.53,5.53,0,0,1-2-1.8L81,147.22a2,2,0,0,1,.46-2.3l2-1.79-1.47-2.84a.78.78,0,0,1,.43-1.09h0a.77.77,0,0,1,.86.26l2.45,3.13.23.25a6.83,6.83,0,0,1,1.14,1.68h0a7,7,0,0,1,.67,2.45l.11,1.26Z"/><path class="cls-3" d="M97.77,181.37h0a.82.82,0,0,1-.31-1.11l1.77-3.11,2-.22-2.35,4.13A.82.82,0,0,1,97.77,181.37Z"/><path class="cls-3" d="M98.86,182.85h0a.81.81,0,0,1-.31-1.1l2.68-4.82,1.41.8L100,182.54A.82.82,0,0,1,98.86,182.85Z"/><path class="cls-3" d="M100.6,183h0a.82.82,0,0,1-.31-1.11l2.35-4.13,1.42.8-2.35,4.14A.81.81,0,0,1,100.6,183Z"/><path class="cls-3" d="M103.13,181.82h0a.82.82,0,0,1-.31-1.11l1.24-2.18,1.41.81-1.23,2.18A.82.82,0,0,1,103.13,181.82Z"/><path class="cls-3" d="M105,180.17l.8-1.4.15-1.54-3.7-2.22-.09,0A4.85,4.85,0,0,0,99,177.49l-.12-.05Z"/><path class="cls-2" d="M150.31,205q-12.26,0-19.53-4a27.1,27.1,0,0,1-11.12-11.35,49.1,49.1,0,0,1-5-17.56,206.68,206.68,0,0,1-1.14-22.78,207.71,207.71,0,0,1,1.14-22.62,50.14,50.14,0,0,1,5-17.79,28,28,0,0,1,11.12-11.58q7.28-4.16,19.53-4.16t19.52,4.16A28,28,0,0,1,181,108.84a50.14,50.14,0,0,1,5,17.79,207.71,207.71,0,0,1,1.14,22.62A206.68,206.68,0,0,1,186,172a49.1,49.1,0,0,1-5,17.56,27.12,27.12,0,0,1-11.13,11.35Q162.57,204.95,150.31,205Zm0-15.59a12.74,12.74,0,0,0,7.79-2.19,13.78,13.78,0,0,0,4.54-7,51.17,51.17,0,0,0,2.12-12.41q.54-7.64.53-18.54t-.53-18.46a52.17,52.17,0,0,0-2.12-12.41,13.79,13.79,0,0,0-4.54-7,14.91,14.91,0,0,0-15.59,0,13.85,13.85,0,0,0-4.54,7,52.68,52.68,0,0,0-2.12,12.41q-.53,7.56-.53,18.46t.53,18.54A51.66,51.66,0,0,0,138,180.2a13.85,13.85,0,0,0,4.54,7A12.79,12.79,0,0,0,150.31,189.36Z"/><path class="cls-2" d="M203,95.22h21.79v43.29h.31l27.54-43.29h23.61l-29.36,46.31,32.69,61.76H255L232.8,158.94l-8,12.26v32.09H203Z"/><path class="cls-2" d="M287.28,95.22h38.14a31.41,31.41,0,0,1,14,2.8,25.5,25.5,0,0,1,9.16,7.34,28.79,28.79,0,0,1,5,10.37,47,47,0,0,1,1.52,11.88,38.76,38.76,0,0,1-2.5,14.61,26.59,26.59,0,0,1-7,10.06,29.26,29.26,0,0,1-10.82,5.9,47.53,47.53,0,0,1-14.08,2H309.08v43.14h-21.8Zm31.48,48.89a14.35,14.35,0,0,0,10.52-3.94q4-3.93,4-12.26,0-8.18-3.48-12.41t-11.65-4.24h-9.08v32.85Z"/><path class="cls-2" d="M381.42,203.89h-2.27c-.6,0-1.24,0-1.89-.07s-1.41-.11-2.27-.16-2-.17-3.41-.37v-16.5a45.34,45.34,0,0,0,6.36.45q5.3,0,7.72-2.72a28.4,28.4,0,0,0,4.54-7.72l1.06-2.42L361.59,95.22h24.22l15.89,53.12L417,95.22h22.7L413.81,173a133.78,133.78,0,0,1-5.37,14.31,35,35,0,0,1-6.13,9.53,20.12,20.12,0,0,1-8.48,5.38A39.73,39.73,0,0,1,381.42,203.89Z"/><path class="cls-2" d="M451.19,95.22h57.67v17.86H473v90.21h-21.8Z"/><g class="cls-8"><path d="M183.63,222.47H26.92a3.65,3.65,0,0,1-3.65-3.65h0a3.64,3.64,0,0,1,3.65-3.65H183.63a3.65,3.65,0,0,1,3.65,3.65h0A3.66,3.66,0,0,1,183.63,222.47Z"/></g><g class="cls-8"><path d="M479.63,223.47H255.92a3.65,3.65,0,0,1-3.65-3.65h0a3.64,3.64,0,0,1,3.65-3.65H479.63a3.65,3.65,0,0,1,3.65,3.65h0A3.66,3.66,0,0,1,479.63,223.47Z"/></g><g class="cls-8"><path d="M227.2,222.47H203.48a3.66,3.66,0,0,1-3.65-3.65h0a3.65,3.65,0,0,1,3.65-3.65H227.2a3.65,3.65,0,0,1,3.65,3.65h0A3.66,3.66,0,0,1,227.2,222.47Z"/></g><path class="cls-6" d="M436.43,144.76a5.55,5.55,0,0,1-.74,3.11,11.07,11.07,0,0,1-2.66,2.39,4.75,4.75,0,0,0-1.57,1.55,3.93,3.93,0,0,0-.57,2.12,2.86,2.86,0,0,0,.67,2,2.43,2.43,0,0,0,1.9.74,2.35,2.35,0,0,0,1.66-.61,2.41,2.41,0,0,0,.7-1.81h4.89l0,.08a5.38,5.38,0,0,1-2,4.65,8.42,8.42,0,0,1-5.31,1.55,8.15,8.15,0,0,1-5.57-1.78,6.11,6.11,0,0,1-2-4.82,5.79,5.79,0,0,1,1.11-3.42,7.94,7.94,0,0,1,2.82-2.45,3.36,3.36,0,0,0,1.28-1.34,4.6,4.6,0,0,0,.34-2Zm-5-6.18h5v4h-5Z"/><path class="cls-3" d="M100.72,83.72a5.78,5.78,0,0,1,.78-3.26A11.59,11.59,0,0,1,104.29,78a5.11,5.11,0,0,0,1.65-1.62,4.17,4.17,0,0,0,.6-2.24,3,3,0,0,0-.7-2.09,2.56,2.56,0,0,0-2-.78,2.53,2.53,0,0,0-1.75.64,2.57,2.57,0,0,0-.73,1.91H96.23l0-.1a5.65,5.65,0,0,1,2.07-4.87,8.88,8.88,0,0,1,5.58-1.63A8.55,8.55,0,0,1,109.69,69a6.38,6.38,0,0,1,2.13,5,6,6,0,0,1-1.17,3.59,8.15,8.15,0,0,1-3,2.58,3.57,3.57,0,0,0-1.35,1.41,4.88,4.88,0,0,0-.35,2Zm5.26,6.5h-5.24V86H106Z"/><path class="cls-3" d="M100.72,83.72a5.78,5.78,0,0,1,.78-3.26A11.59,11.59,0,0,1,104.29,78a5.11,5.11,0,0,0,1.65-1.62,4.17,4.17,0,0,0,.6-2.24,3,3,0,0,0-.7-2.09,2.56,2.56,0,0,0-2-.78,2.53,2.53,0,0,0-1.75.64,2.57,2.57,0,0,0-.73,1.91H96.23l0-.1a5.65,5.65,0,0,1,2.07-4.87,8.88,8.88,0,0,1,5.58-1.63A8.55,8.55,0,0,1,109.69,69a6.38,6.38,0,0,1,2.13,5,6,6,0,0,1-1.17,3.59,8.15,8.15,0,0,1-3,2.58,3.57,3.57,0,0,0-1.35,1.41,4.88,4.88,0,0,0-.35,2Zm5.26,6.5h-5.24V86H106Z"/><path class="cls-3" d="M241.86,80.62a5.73,5.73,0,0,1,.78-3.26,11.48,11.48,0,0,1,2.8-2.52,5,5,0,0,0,1.64-1.62,4.16,4.16,0,0,0,.6-2.23,3,3,0,0,0-.7-2.09,2.55,2.55,0,0,0-2-.78,2.46,2.46,0,0,0-1.74.64,2.52,2.52,0,0,0-.74,1.9h-5.13l0-.09a5.66,5.66,0,0,1,2.06-4.88A8.88,8.88,0,0,1,245,64.06a8.55,8.55,0,0,1,5.85,1.87A6.4,6.4,0,0,1,253,71a6.1,6.1,0,0,1-1.16,3.59,8.25,8.25,0,0,1-3,2.57,3.52,3.52,0,0,0-1.35,1.42,4.82,4.82,0,0,0-.35,2.05Zm5.26,6.49h-5.24V82.9h5.24Z"/><path class="cls-3" d="M241.86,80.62a5.73,5.73,0,0,1,.78-3.26,11.48,11.48,0,0,1,2.8-2.52,5,5,0,0,0,1.64-1.62,4.16,4.16,0,0,0,.6-2.23,3,3,0,0,0-.7-2.09,2.55,2.55,0,0,0-2-.78,2.46,2.46,0,0,0-1.74.64,2.52,2.52,0,0,0-.74,1.9h-5.13l0-.09a5.66,5.66,0,0,1,2.06-4.88A8.88,8.88,0,0,1,245,64.06a8.55,8.55,0,0,1,5.85,1.87A6.4,6.4,0,0,1,253,71a6.1,6.1,0,0,1-1.16,3.59,8.25,8.25,0,0,1-3,2.57,3.52,3.52,0,0,0-1.35,1.42,4.82,4.82,0,0,0-.35,2.05Zm5.26,6.49h-5.24V82.9h5.24Z"/><path class="cls-3" d="M194.88,188a9.79,9.79,0,0,1-10,10.06h-8.3a10.2,10.2,0,1,1,0-20.4h5.25l5.59-2.06v2.88C192.89,179.88,194.88,183.46,194.88,188Z"/><path d="M10.54,176.84H6.16V164.71h4.38Zm0,6.66H6.16v-3.65h4.38Z"/><path class="cls-6" d="M318,161.15h-4.37V149H318Zm0,6.66h-4.37v-3.65H318Z"/><path d="M358.56,181.9c-1.42-4.62-3.46-6.58-7.24-6.81-1.68-.11-15.71-.11-17.38,0-3.79.23-5.54,2.61-7,7.29l-3.19,12.93a4.91,4.91,0,0,0,1.2,4l4.32,4.82,2-17,3.71,20.3h16.63l2.76-20.3L357.14,204l4.2-4.78a4.92,4.92,0,0,0,1.18-4Z"/><path class="cls-3" d="M331.51,160.48c-.05-3,2.58-6.43,6.38-7.44a8.6,8.6,0,0,1,9.55,3.78l.33.53a8.6,8.6,0,0,1,.92,7l-2.51,6.21,0,4.43-3.53,2.68L339,175l-.08-4.76h-3.33A4.26,4.26,0,0,1,331.4,166v-2Z"/><path class="cls-4" d="M335,165.68a1.88,1.88,0,0,0,3.76,0"/><path class="cls-6" d="M346.57,169.63l2.62-4.52a9.67,9.67,0,0,0,.83-1.82v0a9.77,9.77,0,0,0-5.93-12.45,6.29,6.29,0,0,0-.74-.22,9.68,9.68,0,0,0-11.76,6.1,6.67,6.67,0,0,0-.44,1.93l6.19,4.5a3.35,3.35,0,0,0,4.54-.55l1.26-1.5Z"/><path class="cls-3" d="M342.27,162.8a2.15,2.15,0,1,0,2.15-2.16A2.15,2.15,0,0,0,342.27,162.8Z"/><path class="cls-3" d="M368.71,207.38a4.9,4.9,0,0,0-5.44-2l-9.39,2.52H332.32l-9.39-2.52a5,5,0,0,0-5.43,2.11,5.13,5.13,0,0,0,2.29,7.38l16.76,5.27h17.74l12.12-5.33A5.21,5.21,0,0,0,368.71,207.38Z"/><path d="M348.6,218.52l1.25,1.39,12,.16h0a3,3,0,0,0-3.25-2.31l-1.48.18a6.32,6.32,0,0,1-4.44-2.15Z"/><path d="M330.14,217.81a4.7,4.7,0,0,1-1.08.13l-1.47-.18a3,3,0,0,0-3.25,2.31l12.21-.14Z"/><path class="cls-4" d="M354.48,213.39H331.69a2.22,2.22,0,0,1-2.2-2L328,197.19a2.22,2.22,0,0,1,2.2-2.44H356a2.22,2.22,0,0,1,2.2,2.45l-1.51,14.21A2.22,2.22,0,0,1,354.48,213.39Z"/><path class="cls-7" d="M345,204.07a1.94,1.94,0,1,1-1.94-1.94A1.94,1.94,0,0,1,345,204.07Z"/><path d="M330.73,159.25c0-.53.13-2.07.16-2.91.37-4.48,5.22-8.08,10.26-8a10.42,10.42,0,0,1,9.47,7,9.46,9.46,0,0,1,.56,2.73l-.05,1.06-25.91,1.48-.06-1.06Z"/><path class="cls-7" d="M29.07,29.3A10.37,10.37,0,0,0,18.64,19h-8.3a10.2,10.2,0,1,0,0,20.4h5.25l6.53,2.5V39.05A10.2,10.2,0,0,0,29.07,29.3Z"/><path class="cls-7" d="M385.8,10.06A9.79,9.79,0,0,1,395.77,0h8.3a10.2,10.2,0,1,1,0,20.4h-5.26l-5.58,2.05V19.58C387.79,18.2,385.8,14.62,385.8,10.06Z"/><path d="M416.33,139.46l.86,3.51-10-.37h0a2.61,2.61,0,0,1,3-1.82l1.28.24a1.25,1.25,0,0,0,1.22-1.69h0Z"/><path d="M429.16,94.64l-.86,3.51,10-.39h0a2.61,2.61,0,0,0-3-1.82l-1.27.25a1.26,1.26,0,0,1-1.23-1.69h0Z"/><path class="cls-5" d="M418.67,68.9l-13.45,7.68-6.68,3.62-.62.64-.88.07L390.4,88l7.75,22.54a5.77,5.77,0,0,0,.34.81l14.19,28,3.65.13s.31-4.56-2.89-13.74a105.29,105.29,0,0,0-7.6-16.68l-3-17.8L415.64,79.9s0-2.82,5,5.48,7.76,11,7.76,11l3.22-1.9L419.08,69.68A8.3,8.3,0,0,0,418.67,68.9Z"/><path class="cls-3" d="M419.45,26.53l-5.28,4.91,1.09,1.16,5.28-4.9a.8.8,0,1,0-1.09-1.17Z"/><path class="cls-3" d="M412.53,30.66l.3-.64a13.76,13.76,0,0,0,4.28-8.25l0-.23a1.28,1.28,0,0,1,1.66-1.05h0a1.27,1.27,0,0,1,.89,1.19h0A13.74,13.74,0,0,1,416.36,31l-2.47,2.88Z"/><path class="cls-3" d="M369.19,96.72l3.43-6.34,1.4.76-3.42,6.34a.8.8,0,0,1-1.41-.76Z"/><path class="cls-3" d="M371.45,89l-.54.45A13.81,13.81,0,0,1,364,95.65l-.22.09a1.28,1.28,0,0,0-.6,1.87h0a1.29,1.29,0,0,0,1.38.56h0a13.82,13.82,0,0,0,8.18-5.56l2.16-3.11Z"/><path class="cls-6" d="M412.71,30.05,388.54,52.81l-13.1,9.88-4.53,26.62,3.2,1.59,5.39-22.37,10.44,19.66,18.89-12.91L397.74,54,415,32.66Z"/><path class="cls-3" d="M388.73,35.83c-1.22-2.72-5.11-4.75-9-4a8.69,8.69,0,0,0-7.08,7.55l-.07.63a8.66,8.66,0,0,0,2.18,6.81l5.48,5.68,1.42,3.34,5.11,1.53,1.79-4.51L386.7,48.9l3-1.31a4.3,4.3,0,0,0,2-5.71v0L390.35,39Z"/><path d="M389.17,73.81h0A2.82,2.82,0,0,0,390.51,70l-13-27.17L388,34a6.62,6.62,0,0,0-1.16-1.48,9.15,9.15,0,0,0-12.53-.47h0a9.51,9.51,0,0,0-2.56,11.45c.16.32,9.65,20.45,13.64,28.92A2.83,2.83,0,0,0,389.17,73.81Z"/><path class="cls-4" d="M388.29,43.17a1.9,1.9,0,0,1-3.43,1.62"/><path class="cls-3" d="M380.67,43.43a2.24,2.24,0,1,1-3-1.07A2.25,2.25,0,0,1,380.67,43.43Z"/><path class="cls-3" d="M23.32,121.55l1.9,3.86H13.29a2.9,2.9,0,0,1,3.24-2.15l1.43.22a1.39,1.39,0,0,0,1.29-1.93h4.07Z"/><path class="cls-3" d="M13.25,121.55l1.89,3.86H3.21a2.91,2.91,0,0,1,3.25-2.15l1.43.22a1.39,1.39,0,0,0,1.29-1.93h4.07Z"/><path d="M14.51,121.9,25.06,94.76l12.11-6.13,13.74,7.42,3.85-5.9-15,1.66L19.67,87.26a5,5,0,0,0-3.14,3.85L7.45,121.9Z"/><path d="M27,87.91a5,5,0,0,0-2.67,4l-6.91,30h6.59l9.71-25.6s12.29,3,20.72,3a8.18,8.18,0,0,0,7.77-7.77V90.15Z"/><path class="cls-6" d="M42.22,70.05l-.54,19.31,20.57,2.45V88.18l9.41-4.28A4,4,0,0,0,73.35,78L64,64a9.09,9.09,0,0,0-7.9-4.6H45.3a7.45,7.45,0,0,0-6.74,4.26L30.07,81.45,33.7,87Zm20,11.4V74.06l3.07,4.11a1.44,1.44,0,0,1-.58,2.18Z"/><path class="cls-3" d="M40.7,44c-.05-3,2.57-6.41,6.35-7.42a8.57,8.57,0,0,1,9.51,3.76l.33.53a8.6,8.6,0,0,1,.92,7l-2.5,7.38,0,4.15-3.67,1.75-3.47-1.75-.06-4.49H44.78a4.25,4.25,0,0,1-4.19-4.25V47.44Z"/><path class="cls-4" d="M44.18,50.32a1.88,1.88,0,0,0,3.75,0"/><path class="cls-3" d="M49.41,88h0a.9.9,0,0,1,.39-1.22l3.5-1.82,2.34,1.15-5,2.27A.91.91,0,0,1,49.41,88Z"/><path class="cls-3" d="M49.54,90h0a.9.9,0,0,1,.37-1.21l5.39-2.88.84,1.6-5.38,2.87A.89.89,0,0,1,49.54,90Z"/><path class="cls-3" d="M51.08,91.17h0A.91.91,0,0,1,51.46,90l4.68-2.44.83,1.6L52.3,91.55A.91.91,0,0,1,51.08,91.17Z"/><path class="cls-3" d="M54.13,91.61h0a.91.91,0,0,1,.38-1.22L57,89.11l.83,1.6L55.34,92A.9.9,0,0,1,54.13,91.61Z"/><path class="cls-3" d="M56.87,91.2,58,90.6a2.38,2.38,0,0,0,.73-.61l.76-.95-2.11-4.3-.1,0a5.39,5.39,0,0,0-4.38.41Z"/><path class="cls-7" d="M52.12,33.85h0a9.39,9.39,0,0,0-11.41,5.92,6.48,6.48,0,0,0-.43,1.87l3.66.24,1.32-2.37L45.84,42l6.37.45L54.4,58.36A42.94,42.94,0,0,0,60,57.52C65,51.52,62,34.52,52.12,33.85Z"/><path class="cls-3" d="M52.26,47.44A1.72,1.72,0,1,0,54,45.73,1.72,1.72,0,0,0,52.26,47.44Z"/><path class="cls-7" d="M52.19,39.17V50.62A9.51,9.51,0,0,0,53.54,44,16.82,16.82,0,0,0,52.19,39.17Z"/><path class="cls-4" d="M16.26,89.8h25a2.51,2.51,0,0,0-2.51-2.51H16.26Z"/><path class="cls-2" d="M11.3,89.68H33.24a2.05,2.05,0,0,0,2-2.48l-3-14.09a2,2,0,0,0-2-1.62H8.28a2.05,2.05,0,0,0-2,2.48l3,14.09A2,2,0,0,0,11.3,89.68Z"/><path class="cls-9" d="M18.87,80.58a1.89,1.89,0,1,0,1.89-1.89A1.89,1.89,0,0,0,18.87,80.58Z"/><path class="cls-7" d="M204.05,150.8v16.08a1.91,1.91,0,0,0,1.55,1.93,1.86,1.86,0,0,0,2.17-1.83v-4.64a1.88,1.88,0,0,1,1.88-1.85c.87,0,1.83.6,1.83,1.41v15.66a1.93,1.93,0,0,0,1.54,1.93,1.86,1.86,0,0,0,2.17-1.83l0-12.11a1.87,1.87,0,0,1,2-1.9h0a1.87,1.87,0,0,1,1.79,1.88v3.67a1.91,1.91,0,0,0,1.55,1.93,1.85,1.85,0,0,0,2.16-1.83V147.61Z"/><path class="cls-6" d="M204.54,104.34h18.74l5.06-10.77a3.59,3.59,0,0,0-3.61-5.1h0a3.52,3.52,0,0,0-1.66.61l-9.16,6.24-9.16-6.24a3.6,3.6,0,0,0-1.66-.61h0a3.59,3.59,0,0,0-3.61,5.1Z"/><path class="cls-3" d="M183.51,154.83l4.83-5.28-1.17-1.07-4.82,5.28a.79.79,0,1,0,1.16,1.07Z"/><path class="cls-3" d="M190,150.19l-.24.65a13.61,13.61,0,0,0-3.56,8.5l0,.24a1.26,1.26,0,0,1-1.55,1.17h0a1.27,1.27,0,0,1-1-1.1h0a13.63,13.63,0,0,1,2.53-9.48l2.21-3Z"/><path class="cls-3" d="M245.23,154.83l-4.82-5.28,1.16-1.07,4.82,5.28a.79.79,0,1,1-1.16,1.07Z"/><path class="cls-3" d="M238.72,150.19l.24.65a13.61,13.61,0,0,1,3.56,8.5l0,.24a1.26,1.26,0,0,0,1.55,1.17h0a1.27,1.27,0,0,0,1-1.1h0a13.63,13.63,0,0,0-2.53-9.48l-2.21-3Z"/><path d="M241.34,148.41l-16.08-21.67-2-22.4L222,104a28.63,28.63,0,0,0-15.92-.07l-1.53.44L203.33,127,187.4,148.41l2.5,2.39,12.15-12.75a17.06,17.06,0,0,1,12.29-5.28h0A17,17,0,0,1,226.68,138l12.16,12.68Z"/><path class="cls-3" d="M203.52,147.75c-.05,2.89,2.52,6.27,6.23,7.26a8.42,8.42,0,0,0,9.32-3.68l.32-.52a8.43,8.43,0,0,0,.9-6.87l-2.45-6.06,0-4.32-3.45-2.62-3.52,2.62-.08,4.65h-3.25a4.17,4.17,0,0,0-4.11,4.17v1.93Z"/><path class="cls-4" d="M206.93,142.67a1.84,1.84,0,0,1,3.67,0"/><path class="cls-7" d="M215.51,146.94l-12.33,2.64a6.5,6.5,0,0,0,.43,1.88,9.43,9.43,0,0,0,11.47,5.95,9.94,9.94,0,0,0,7.53-9.33c0-4.14-3.79-7.76-3.79-7.76Z"/><path class="cls-3" d="M214,145.49a2.1,2.1,0,1,1,2.1,2.1A2.1,2.1,0,0,1,214,145.49Z"/><path class="cls-3" d="M491.83,113.65h-4.38V101.52h4.38Zm0,6.66h-4.38v-3.65h4.38Z"/><path class="cls-2" d="M73,368.47q-12.26,0-19.53-4A27.13,27.13,0,0,1,42.36,353.1a49,49,0,0,1-5-17.55,226.67,226.67,0,0,1,0-45.41,50,50,0,0,1,5-17.78,28,28,0,0,1,11.12-11.58q7.27-4.15,19.53-4.16,11.65,0,18.39,3.78A25.73,25.73,0,0,1,101.46,270a33.42,33.42,0,0,1,4.17,12.56,104.41,104.41,0,0,1,.83,12.64H84.66q0-11.81-2.8-17.18t-10.21-5.37a10.18,10.18,0,0,0-6.74,2.2Q62.27,277,60.75,282a60.43,60.43,0,0,0-2.12,12.86q-.6,7.95-.6,19.45a187.7,187.7,0,0,0,.83,19.83,43.8,43.8,0,0,0,2.57,11.73c1.16,2.78,2.62,4.64,4.39,5.6A12.62,12.62,0,0,0,72,352.88a14.4,14.4,0,0,0,5.37-1A9,9,0,0,0,81.64,348a25.71,25.71,0,0,0,2.87-8.33,75.53,75.53,0,0,0,1.06-14.15h21.8A97,97,0,0,1,106,342.21a36.89,36.89,0,0,1-5.07,13.62,25.91,25.91,0,0,1-10.44,9.23Q83.76,368.47,73,368.47Z"/><path class="cls-2" d="M210,258.74h60.39V276.6H231.78V302H268.1v17.86H231.78v29.06h40.1V366.8H210Z"/><path class="cls-2" d="M303.67,276.6H280.06V258.74h69V276.6H325.46v90.2H303.67Z"/><path class="cls-2" d="M374.2,258.74h26.94l28.6,108.06H407l-5-22.85H373.29l-5,22.85h-22.7Zm24.06,67.35L387.82,277.5h-.3l-10.45,48.59Z"/><path d="M186.75,381.11l1.25,1.4,12,.16h0a3,3,0,0,0-3.25-2.31l-1.47.18a6.29,6.29,0,0,1-4.44-2.16Z"/><path d="M161.75,380.11l1.25,1.4,12,.16h0a3,3,0,0,0-3.25-2.31l-1.47.18a6.29,6.29,0,0,1-4.44-2.16Z"/><path class="cls-6" d="M200.82,302.32h9a0,0,0,0,1,0,0v9.46a4.4,4.4,0,0,1-4.4,4.4h-.15a4.4,4.4,0,0,1-4.4-4.4v-9.46A0,0,0,0,1,200.82,302.32Z"/><path class="cls-3" d="M214.8,299.29c1.4-2.27,1-6.15-1.52-8.68a7.75,7.75,0,0,0-9.12-1.45l-.5.26a7.77,7.77,0,0,0-3.94,5l-1.44,7-3.1,1,.88,8.69,2.94-2.61,4.67-4,3,1.5a3.84,3.84,0,0,0,5.21-1.37l0,0,.89-1.51Z"/><path class="cls-6" d="M215.87,297l.31-.05a8.62,8.62,0,0,0-5.93-10.26h0a8.63,8.63,0,0,0-11,6.8,36.15,36.15,0,0,0-.64,6.24l5.81-5,.49.28A17.11,17.11,0,0,0,215.87,297Z"/><path class="cls-4" d="M209.17,302.76a1.69,1.69,0,1,1-2.91-1.72"/><path d="M206,322.69l-1-10.68a4.43,4.43,0,0,0-1.14-2.26l-2.82-3L199,308.54l-3.82-6.08-7.45-2.75s-12.45,17.17-14,27.29l-.41,2.63,17.18,3.13,5.93-9.88,3.05-2.72,1.19,7.41a4.2,4.2,0,0,0,4.27,3.54h0a4.19,4.19,0,0,0,3.67-2.38l7.21-15-4.1-1.87Z"/><path class="cls-7" d="M167.24,379.85l11.43-36.27s10.13-6.37,11.49-10l.3-.8-17.18-3.13-2.3,4.08a16.26,16.26,0,0,0-2.93,8.78l-.38,11.65-1.73,4.41a64.71,64.71,0,0,0-3.25,15.57l-.37,5.73Z"/><path class="cls-10" d="M187,377.78l.25,2.07h5.37L195,358.43a8.3,8.3,0,0,0-.44-4l-4.07-21.69-7.53-1.38-4.26,12.2,9,14.07S186.11,370.77,187,377.78Z"/><path class="cls-3" d="M204.88,297.21a1.94,1.94,0,1,1-.68-2.66A2,2,0,0,1,204.88,297.21Z"/><polygon points="184.84 310.82 181.96 326.63 193.46 341.1 197.06 338.73 190.69 324.26 190.59 307.01 184.84 310.82"/><path class="cls-3" d="M215.78,313.78h0a5.62,5.62,0,0,0,2-1.8l.72-1.08a2,2,0,0,0-.46-2.3l-2-1.79,1.47-2.84a.78.78,0,0,0-.43-1.09h0a.77.77,0,0,0-.86.26l-2.45,3.13-.23.25a6.83,6.83,0,0,0-1.14,1.68h0a7,7,0,0,0-.67,2.45l-.11,1.26Z"/><path class="cls-3" d="M201.74,345h0a.82.82,0,0,0,.31-1.11l-1.77-3.1-2-.23,2.35,4.14A.81.81,0,0,0,201.74,345Z"/><path class="cls-3" d="M200.65,346.53h0a.81.81,0,0,0,.31-1.1l-2.68-4.83-1.41.81,2.67,4.81A.82.82,0,0,0,200.65,346.53Z"/><path class="cls-3" d="M198.91,346.65h0a.82.82,0,0,0,.31-1.11l-2.35-4.13-1.42.8,2.35,4.14A.81.81,0,0,0,198.91,346.65Z"/><path class="cls-3" d="M196.38,345.5h0a.82.82,0,0,0,.31-1.11l-1.24-2.18L194,343l1.23,2.17A.82.82,0,0,0,196.38,345.5Z"/><path class="cls-3" d="M194.51,343.84l-.8-1.39-.15-1.54,3.7-2.22.09,0a4.85,4.85,0,0,1,3.12,2.46l.12-.05Z"/><g class="cls-8"><path d="M101.74,386H48a3.64,3.64,0,0,1-3.64-3.65h0A3.64,3.64,0,0,1,48,378.69h53.72a3.65,3.65,0,0,1,3.65,3.64h0A3.65,3.65,0,0,1,101.74,386Z"/></g><g class="cls-8"><path d="M194.13,386H123.42a3.64,3.64,0,0,1-3.65-3.65h0a3.64,3.64,0,0,1,3.65-3.64h70.71a3.64,3.64,0,0,1,3.65,3.64h0A3.64,3.64,0,0,1,194.13,386Z"/></g><g class="cls-8"><path d="M270.53,386H211.81a3.65,3.65,0,0,1-3.65-3.65h0a3.65,3.65,0,0,1,3.65-3.64h58.72a3.64,3.64,0,0,1,3.64,3.64h0A3.64,3.64,0,0,1,270.53,386Z"/></g><g class="cls-8"><path d="M327.42,386H287.71a3.64,3.64,0,0,1-3.65-3.65h0a3.64,3.64,0,0,1,3.65-3.64h39.71a3.64,3.64,0,0,1,3.65,3.64h0A3.64,3.64,0,0,1,327.42,386Z"/></g><g class="cls-8"><path d="M367.11,386H345.4a3.65,3.65,0,0,1-3.65-3.65h0a3.65,3.65,0,0,1,3.65-3.64h21.71a3.64,3.64,0,0,1,3.65,3.64h0A3.64,3.64,0,0,1,367.11,386Z"/></g><g class="cls-8"><path d="M431,386H409.24a3.65,3.65,0,0,1-3.65-3.65h0a3.65,3.65,0,0,1,3.65-3.64H431a3.65,3.65,0,0,1,3.65,3.64h0A3.65,3.65,0,0,1,431,386Z"/></g><path class="cls-6" d="M251.3,304.83a5.46,5.46,0,0,1-.75,3.11,10.87,10.87,0,0,1-2.66,2.39,4.91,4.91,0,0,0-1.56,1.55,3.85,3.85,0,0,0-.58,2.12,2.91,2.91,0,0,0,.67,2,2.45,2.45,0,0,0,1.9.74,2.37,2.37,0,0,0,1.67-.61,2.41,2.41,0,0,0,.7-1.81h4.89l0,.09a5.39,5.39,0,0,1-2,4.64,8.45,8.45,0,0,1-5.32,1.55,8.13,8.13,0,0,1-5.56-1.78,6.09,6.09,0,0,1-2-4.82,5.76,5.76,0,0,1,1.11-3.41,7.93,7.93,0,0,1,2.81-2.46,3.32,3.32,0,0,0,1.29-1.34,4.78,4.78,0,0,0,.33-2Zm-5-6.18h5v4h-5Z"/><path class="cls-6" d="M38.91,285.89a5.38,5.38,0,0,1,.74-3.11,10.87,10.87,0,0,1,2.66-2.39,5,5,0,0,0,1.57-1.55,3.93,3.93,0,0,0,.57-2.12,2.86,2.86,0,0,0-.67-2,2.45,2.45,0,0,0-1.9-.74,2.37,2.37,0,0,0-1.67.61,2.44,2.44,0,0,0-.7,1.81H34.62l0-.09a5.4,5.4,0,0,1,2-4.64,8.47,8.47,0,0,1,5.32-1.55,8.11,8.11,0,0,1,5.56,1.78,6.06,6.06,0,0,1,2,4.82,5.82,5.82,0,0,1-1.1,3.41,7.87,7.87,0,0,1-2.82,2.46,3.39,3.39,0,0,0-1.29,1.34,4.78,4.78,0,0,0-.33,2Zm5,6.18h-5v-4h5Z"/><path class="cls-6" d="M337,240a5.79,5.79,0,0,1,.78-3.27,11.8,11.8,0,0,1,2.79-2.51,5,5,0,0,0,1.65-1.62,4.16,4.16,0,0,0,.6-2.23,3,3,0,0,0-.7-2.09,2.55,2.55,0,0,0-2-.78,2.5,2.5,0,0,0-1.75.64,2.55,2.55,0,0,0-.73,1.9h-5.13l0-.09a5.67,5.67,0,0,1,2.07-4.88,8.88,8.88,0,0,1,5.58-1.63,8.55,8.55,0,0,1,5.85,1.87,6.39,6.39,0,0,1,2.13,5.06,6.06,6.06,0,0,1-1.17,3.59,8.21,8.21,0,0,1-2.95,2.57,3.57,3.57,0,0,0-1.35,1.41,4.9,4.9,0,0,0-.35,2.06Zm5.26,6.49H337V242.3h5.24Z"/><path class="cls-3" d="M337,240a5.79,5.79,0,0,1,.78-3.27,11.8,11.8,0,0,1,2.79-2.51,5,5,0,0,0,1.65-1.62,4.16,4.16,0,0,0,.6-2.23,3,3,0,0,0-.7-2.09,2.55,2.55,0,0,0-2-.78,2.5,2.5,0,0,0-1.75.64,2.55,2.55,0,0,0-.73,1.9h-5.13l0-.09a5.67,5.67,0,0,1,2.07-4.88,8.88,8.88,0,0,1,5.58-1.63,8.55,8.55,0,0,1,5.85,1.87,6.39,6.39,0,0,1,2.13,5.06,6.06,6.06,0,0,1-1.17,3.59,8.21,8.21,0,0,1-2.95,2.57,3.57,3.57,0,0,0-1.35,1.41,4.9,4.9,0,0,0-.35,2.06Zm5.26,6.49H337V242.3h5.24Z"/><path d="M94.44,378.12,92.55,382h11.93a2.91,2.91,0,0,0-3.25-2.16l-1.43.22a1.39,1.39,0,0,1-1.29-1.93H94.44Z"/><path d="M104.52,378.12l-1.9,3.87h11.93a2.9,2.9,0,0,0-3.24-2.16l-1.43.22a1.39,1.39,0,0,1-1.29-1.93h-4.07Z"/><path class="cls-11" d="M103.26,378.47,92.71,351.34,80.59,345.2l-13.74,7.42L63,346.72l15,1.66,20.1-4.55a5,5,0,0,1,3.15,3.85l9.08,30.79Z"/><path class="cls-6" d="M90.73,344.48a5,5,0,0,1,2.66,4l6.91,30H93.71L84,352.87s-12.29,3-20.71,3a8.17,8.17,0,0,1-7.77-7.76v-1.39Z"/><path class="cls-5" d="M84.07,343.58,87.69,338l-8.48-17.83a7.48,7.48,0,0,0-6.75-4.26H61.64a9.09,9.09,0,0,0-7.9,4.6l-9.33,14a4,4,0,0,0,1.69,5.9l9.42,4.28v3.63l20.57-2.45-.55-19.31Zm-31-6.65a1.44,1.44,0,0,1-.58-2.19l3.07-4.11V338Z"/><path class="cls-3" d="M77.07,300.52c0-2.95-2.57-6.4-6.36-7.42a8.59,8.59,0,0,0-9.51,3.76l-.32.53a8.56,8.56,0,0,0-.92,7l2.5,7.38v4.15l3.67,1.76,3.47-1.76.06-4.49H73a4.25,4.25,0,0,0,4.19-4.25V304Z"/><path class="cls-4" d="M73.58,306.89a1.87,1.87,0,0,1-3.74,0"/><path class="cls-3" d="M68.35,344.54h0a.91.91,0,0,0-.38-1.22l-3.5-1.82-2.35,1.15,5,2.27A.9.9,0,0,0,68.35,344.54Z"/><path class="cls-3" d="M68.23,346.58h0a.91.91,0,0,0-.38-1.22l-5.39-2.87-.83,1.59L67,347A.89.89,0,0,0,68.23,346.58Z"/><path class="cls-3" d="M66.68,347.74h0a.91.91,0,0,0-.38-1.22l-4.67-2.44-.83,1.6,4.67,2.44A.9.9,0,0,0,66.68,347.74Z"/><path class="cls-3" d="M63.64,348.18h0a.89.89,0,0,0-.39-1.21l-2.45-1.29-.84,1.6,2.46,1.28A.9.9,0,0,0,63.64,348.18Z"/><path class="cls-3" d="M60.9,347.77l-1.15-.6a2.18,2.18,0,0,1-.74-.61l-.76-.95,2.11-4.3.1,0a5.38,5.38,0,0,1,4.38.41Z"/><path d="M65.64,290.42h0a9.41,9.41,0,0,1,11.42,5.92,6.61,6.61,0,0,1,.42,1.87l-3.65.24-1.33-2.37-.58,2.46-6.37.45-4.19,9.94a31.23,31.23,0,0,1-2.45-5.63A9.72,9.72,0,0,1,65.64,290.42Z"/><path class="cls-3" d="M65.5,304a1.72,1.72,0,1,1-1.71-1.72A1.71,1.71,0,0,1,65.5,304Z"/><path d="M70,290.11a3.38,3.38,0,1,1-3.38-3.38A3.38,3.38,0,0,1,70,290.11Z"/><path d="M65.58,295.74V307.2a9.53,9.53,0,0,1-1.36-6.63A16.5,16.5,0,0,1,65.58,295.74Z"/><path class="cls-4" d="M101.51,346.37h-25A2.51,2.51,0,0,1,79,343.86h22.5Z"/><path d="M106.47,346.25H84.53a2.05,2.05,0,0,1-2-2.48l3-14.09a2.05,2.05,0,0,1,2-1.62h21.94a2.05,2.05,0,0,1,2,2.48l-3,14.09A2.05,2.05,0,0,1,106.47,346.25Z"/><path class="cls-4" d="M98.9,337.16a1.9,1.9,0,1,1-1.9-1.9A1.9,1.9,0,0,1,98.9,337.16Z"/><path class="cls-7" d="M85.87,270.68a9.79,9.79,0,0,1,10-10.06h8.29a10.2,10.2,0,1,1,0,20.4H98.88l-5.58,2.05V280.2C87.86,278.82,85.87,275.24,85.87,270.68Z"/><path class="cls-3" d="M423.94,251.55a5.78,5.78,0,0,1,.78-3.26,11.38,11.38,0,0,1,2.79-2.51,5,5,0,0,0,1.65-1.63,4.11,4.11,0,0,0,.6-2.23,3,3,0,0,0-.7-2.09,2.56,2.56,0,0,0-2-.78,2.49,2.49,0,0,0-1.75.64,2.53,2.53,0,0,0-.73,1.9h-5.14l0-.09a5.68,5.68,0,0,1,2.07-4.88,8.94,8.94,0,0,1,5.58-1.63,8.52,8.52,0,0,1,5.84,1.88,6.37,6.37,0,0,1,2.13,5,6,6,0,0,1-1.16,3.59,8.28,8.28,0,0,1-3,2.58,3.58,3.58,0,0,0-1.35,1.41,5,5,0,0,0-.35,2.05ZM429.2,258H424v-4.21h5.25Z"/><path class="cls-7" d="M423.94,251.55a5.78,5.78,0,0,1,.78-3.26,11.38,11.38,0,0,1,2.79-2.51,5,5,0,0,0,1.65-1.63,4.11,4.11,0,0,0,.6-2.23,3,3,0,0,0-.7-2.09,2.56,2.56,0,0,0-2-.78,2.49,2.49,0,0,0-1.75.64,2.53,2.53,0,0,0-.73,1.9h-5.14l0-.09a5.68,5.68,0,0,1,2.07-4.88,8.94,8.94,0,0,1,5.58-1.63,8.52,8.52,0,0,1,5.84,1.88,6.37,6.37,0,0,1,2.13,5,6,6,0,0,1-1.16,3.59,8.28,8.28,0,0,1-3,2.58,3.58,3.58,0,0,0-1.35,1.41,5,5,0,0,0-.35,2.05ZM429.2,258H424v-4.21h5.25Z"/><path class="cls-6" d="M440.08,330.12H435.7V318h4.38Zm0,6.66H435.7v-3.65h4.38Z"/><path class="cls-3" d="M378.84,265.49h18.74l5.06-10.77a3.59,3.59,0,0,0-3.62-5.1h0a3.62,3.62,0,0,0-1.65.6l-9.16,6.24L379,250.22a3.62,3.62,0,0,0-1.65-.6h0a3.59,3.59,0,0,0-3.62,5.1Z"/><path class="cls-3" d="M357.81,316l4.82-5.28-1.17-1.06-4.82,5.28a.8.8,0,0,0,.05,1.12A.79.79,0,0,0,357.81,316Z"/><path class="cls-3" d="M364.32,311.33l-.25.65a13.75,13.75,0,0,0-3.56,8.51v.24A1.26,1.26,0,0,1,359,321.9h0a1.29,1.29,0,0,1-1-1.11h0a13.66,13.66,0,0,1,2.53-9.48l2.21-3.05Z"/><path class="cls-3" d="M419.52,316l-4.82-5.28,1.17-1.06,4.82,5.28a.79.79,0,1,1-1.17,1.06Z"/><path class="cls-3" d="M413,311.33l.24.65a13.69,13.69,0,0,1,3.56,8.51v.24a1.28,1.28,0,0,0,1.56,1.17h0a1.29,1.29,0,0,0,1-1.11h0a13.71,13.71,0,0,0-2.53-9.48l-2.21-3.05Z"/><path class="cls-7" d="M415.63,309.55l-16.07-21.66-2-22.4-1.29-.38a28.54,28.54,0,0,0-15.92-.06l-1.53.44-1.21,22.6L361.7,309.55l2.49,2.4,12.16-12.76a17,17,0,0,1,12.29-5.28h0A17,17,0,0,1,401,299.16l12.16,12.67Z"/><path d="M399,312V328a1.93,1.93,0,0,1-1.55,1.93,1.86,1.86,0,0,1-2.17-1.83v-4.64a1.88,1.88,0,0,0-1.88-1.86c-.87,0-1.83.61-1.83,1.42V338.7a1.92,1.92,0,0,1-1.54,1.93,1.85,1.85,0,0,1-2.17-1.83l0-12.11A1.86,1.86,0,0,0,386,324.8h0a1.86,1.86,0,0,0-1.79,1.87v3.68a1.93,1.93,0,0,1-1.55,1.93,1.85,1.85,0,0,1-2.16-1.83v-21.7Z"/><path class="cls-3" d="M399.57,308.89c.05,2.89-2.52,6.27-6.23,7.27a8.41,8.41,0,0,1-9.32-3.69l-.32-.52a8.4,8.4,0,0,1-.9-6.86l2.45-6.07,0-4.32,3.45-2.61,3.52,2.62.08,4.64h3.25a4.17,4.17,0,0,1,4.11,4.17v1.93Z"/><path class="cls-4" d="M396.16,303.82a1.84,1.84,0,1,0-3.67,0"/><path d="M387.58,308.09l12.33,2.63a6.5,6.5,0,0,1-.43,1.88,9.44,9.44,0,0,1-11.47,6,10,10,0,0,1-7.53-9.34c0-4.14,3.79-7.76,3.79-7.76Z"/><path class="cls-3" d="M389.07,306.63a2.1,2.1,0,1,0-2.1,2.1A2.1,2.1,0,0,0,389.07,306.63Z"/><path class="cls-6" d="M298.59,247.8a10.37,10.37,0,0,0-10.44-10.29h-8.29a10.2,10.2,0,1,0,0,20.4h5.25l6.52,2.5v-2.87A10.21,10.21,0,0,0,298.59,247.8Z"/><path d="M295.87,377.35l.82,3.52-10-.46h0a2.61,2.61,0,0,1,3-1.8l1.27.26a1.26,1.26,0,0,0,1.24-1.69h0Z"/><path d="M313.22,377l-1.1,3.44,10,.32h0a2.6,2.6,0,0,0-2.85-2l-1.29.16a1.26,1.26,0,0,1-1.1-1.78h0Z"/><path class="cls-5" d="M316.93,345.27l-2.6-23.7-9-3.56-.82.32-.83-.32-9,3.56-2.6,23.7a6.47,6.47,0,0,0,0,.88l.9,31.37,3.25,1.68s2.22-4,3.24-13.66a105.35,105.35,0,0,0,.23-18.33l4.87-17.39,4.86,17.39a105.35,105.35,0,0,0,.23,18.33c1,9.67,3.24,13.66,3.24,13.66l3.25-1.68.9-31.37A6.47,6.47,0,0,0,316.93,345.27Z"/><path class="cls-3" d="M347.1,278.38l-6.86,2.18.48,1.52,6.87-2.18a.8.8,0,0,0,.51-1A.78.78,0,0,0,347.1,278.38Z"/><path class="cls-3" d="M339.09,279.16l.54-.45a13.74,13.74,0,0,0,7.38-5.63l.13-.21a1.29,1.29,0,0,1,1.95-.24h0a1.29,1.29,0,0,1,.3,1.46h0a13.79,13.79,0,0,1-7,7L339,282.65Z"/><path class="cls-3" d="M262,278.38l6.86,2.18-.48,1.52-6.87-2.18a.81.81,0,0,1-.52-1A.8.8,0,0,1,262,278.38Z"/><path class="cls-3" d="M270,279.16l-.54-.45a13.74,13.74,0,0,1-7.38-5.63l-.13-.21a1.29,1.29,0,0,0-1.95-.24h0a1.29,1.29,0,0,0-.3,1.46h0a13.79,13.79,0,0,0,7,7l3.46,1.55Z"/><path class="cls-6" d="M339.5,278.68,307.94,289h-6.75l-31.56-10.3-1,3.45L293.38,294l.74,27.6H315l.74-27.6L340.47,282Z"/><path class="cls-3" d="M315.35,273.7c0-3-2.6-6.49-6.43-7.51a8.68,8.68,0,0,0-9.63,3.81l-.33.53a8.71,8.71,0,0,0-.93,7.09l2.53,7.48-.13,3.63,4,3.56,3.54-3.31v-4.33l3.29.1a4.32,4.32,0,0,0,4.24-4.31v-3.21Z"/><path class="cls-7" d="M299.55,308.23h0a2.82,2.82,0,0,0,2.83-2.84l-.14-30.11,13.23-3.51a6.33,6.33,0,0,0-.42-1.83,9.18,9.18,0,0,0-11.13-5.78h0a9.53,9.53,0,0,0-7.2,9.28c0,.36,0,22.61,0,32A2.82,2.82,0,0,0,299.55,308.23Z"/><path class="cls-4" d="M311.83,280.15a1.9,1.9,0,0,1-3.8,0"/><path class="cls-3" d="M304.82,277.14a2.24,2.24,0,1,1-2.24-2.24A2.24,2.24,0,0,1,304.82,277.14Z"/><path d="M227.87,364.46h-5.29V349.79h5.29Zm0,8.05h-5.29v-4.42h5.29Z"/><path class="cls-2" d="M122.8,258.74h36.48a52.63,52.63,0,0,1,12.33,1.36,25.21,25.21,0,0,1,9.76,4.54,20.85,20.85,0,0,1,6.36,8.47,33,33,0,0,1,2.27,13,27.05,27.05,0,0,1-4.08,15.06,20.55,20.55,0,0,1-12.26,8.55v.3A21.45,21.45,0,0,1,188,317.76q5.31,6.51,5.3,17.41a43.36,43.36,0,0,1-1.66,12.11A24.65,24.65,0,0,1,186,357.34a28.33,28.33,0,0,1-10.44,6.89q-6.44,2.58-16,2.57H122.8Zm28,44.34q9.09,0,13.25-3.25t4.16-11q0-7.71-3.79-10.89t-11.95-3.18H144.6v28.3Zm2.27,47.68q7.88,0,12.72-3.48t4.84-12.87a20.42,20.42,0,0,0-1.29-7.79,13.19,13.19,0,0,0-3.48-5,12.55,12.55,0,0,0-5.22-2.65,27.71,27.71,0,0,0-6.66-.75H144.6v32.54Z"/><path class="cls-5" d="M168.28,260.73a5.57,5.57,0,0,1,.74-3.11,11.27,11.27,0,0,1,2.66-2.39,4.82,4.82,0,0,0,1.57-1.54,4,4,0,0,0,.57-2.13,2.88,2.88,0,0,0-.66-2,2.43,2.43,0,0,0-1.91-.75,2.25,2.25,0,0,0-2.36,2.43H164l0-.09a5.42,5.42,0,0,1,2-4.65,8.48,8.48,0,0,1,5.31-1.55,8.14,8.14,0,0,1,5.57,1.78,6.11,6.11,0,0,1,2,4.82,5.77,5.77,0,0,1-1.11,3.42,7.84,7.84,0,0,1-2.82,2.45,3.44,3.44,0,0,0-1.28,1.35,4.74,4.74,0,0,0-.34,2Zm5,6.18h-5v-4h5Z"/><path class="cls-3" d="M138.51,328.05h-4.37V315.92h4.37Zm0,6.66h-4.37v-3.65h4.37Z"/></g></g></g></svg>